# xmcd
#
# Track frame offsets: 
#        150
#        19895
#        37507
#        58152
#        78967
#        97583
#        123175
#        141955
#        156683
#        176895
#
# Disc length: 2550 seconds
#
# Revision: 0
# Processed by: cddbd v1.5.2PL0 Copyright (c) Steve Scherf et al.
# Submitted via: ExactAudioCopy v0.99pb4
#
DISCID=7a09f40a
DTITLE=Preacher Stone - Preacher Stone
DYEAR=2009
DGENRE=Blues
TTITLE0=Not Today
TTITLE1=Livin' Proof
TTITLE2=Old Fashioned Ass Whoopin' Sum Bitch
TTITLE3=That's Just The Whiskey Talkin'
TTITLE4=Brother's Keeper
TTITLE5=Blood From A Stone
TTITLE6=Tractor Pull
TTITLE7=Homegrown Hoedown
TTITLE8=Southern Hospitality
TTITLE9=Mother To Bed
EXTD=
EXTT0=
EXTT1=
EXTT2=
EXTT3=
EXTT4=
EXTT5=
EXTT6=
EXTT7=
EXTT8=
EXTT9=
PLAYORDER=
